<svg xmlns="http://www.w3.org/2000/svg" viewBox="0 0 512 512">
  <rect width="512" height="512" fill="#0a0a0a" />
  <g fill="#f4f3f0">
    <circle cx="96" cy="106" r="4" />
    <circle cx="148" cy="138" r="3" />
    <circle cx="201" cy="98" r="3.5" />
    <circle cx="256" cy="146" r="3" />
    <circle cx="306" cy="112" r="4" />
    <circle cx="362" cy="142" r="3" />
    <circle cx="418" cy="104" r="3.5" />
    <circle cx="126" cy="204" r="4" />
    <circle cx="182" cy="226" r="3.5" />
    <circle cx="236" cy="202" r="3" />
    <circle cx="292" cy="234" r="4" />
    <circle cx="348" cy="202" r="3.5" />
    <circle cx="402" cy="228" r="3" />
    <circle cx="108" cy="308" r="3.5" />
    <circle cx="164" cy="340" r="4" />
    <circle cx="220" cy="302" r="3" />
    <circle cx="276" cy="346" r="3.5" />
    <circle cx="334" cy="312" r="4" />
    <circle cx="390" cy="340" r="3" />
    <circle cx="142" cy="408" r="3" />
    <circle cx="198" cy="438" r="3.5" />
    <circle cx="254" cy="404" r="4" />
    <circle cx="312" cy="436" r="3" />
    <circle cx="368" cy="406" r="3.5" />
  </g>
  <text x="256" y="486" fill="#9cb5cf" text-anchor="middle" font-family="Helvetica, Arial, sans-serif" font-size="26" letter-spacing="2">PAB</text>
</svg>
